<svg width="900" height="260" viewBox="0 0 900 260" role="img" xmlns="http://www.w3.org/2000/svg">
  <title>GitHub profile banner for Rohit Topagi</title>
  <desc>Dark-themed developer banner for Rohit Topagi, Java Backend Developer</desc>

  <rect width="900" height="260" fill="#0d1117" rx="16"/>

  <!-- Grid lines -->
  <line x1="0" y1="52" x2="900" y2="52" stroke="#21262d" stroke-width="0.5"/>
  <line x1="0" y1="104" x2="900" y2="104" stroke="#21262d" stroke-width="0.5"/>
  <line x1="0" y1="156" x2="900" y2="156" stroke="#21262d" stroke-width="0.5"/>
  <line x1="0" y1="208" x2="900" y2="208" stroke="#21262d" stroke-width="0.5"/>
  <line x1="150" y1="0" x2="150" y2="260" stroke="#21262d" stroke-width="0.5"/>
  <line x1="300" y1="0" x2="300" y2="260" stroke="#21262d" stroke-width="0.5"/>
  <line x1="450" y1="0" x2="450" y2="260" stroke="#21262d" stroke-width="0.5"/>
  <line x1="600" y1="0" x2="600" y2="260" stroke="#21262d" stroke-width="0.5"/>
  <line x1="750" y1="0" x2="750" y2="260" stroke="#21262d" stroke-width="0.5"/>

  <!-- Left accent bar -->
  <rect x="44" y="52" width="5" height="156" fill="#378ADD" rx="2"/>

  <!-- Avatar circle -->
  <circle cx="100" cy="130" r="44" fill="#1c2128" stroke="#378ADD" stroke-width="2"/>
  <text x="100" y="142" text-anchor="middle" font-family="'Courier New', monospace" font-size="28" font-weight="700" fill="#e6edf3">RT</text>

  <!-- Name -->
  <text x="172" y="98" font-family="'Courier New', monospace" font-size="34" font-weight="700" fill="#e6edf3">Rohit Topagi</text>

  <!-- Role with terminal prompt -->
  <text x="172" y="132" font-family="'Courier New', monospace" font-size="16" fill="#57ab5a">$</text>
  <text x="192" y="132" font-family="'Courier New', monospace" font-size="16" fill="#79c0ff">Java Backend Developer</text>
  <rect x="440" y="117" width="10" height="18" fill="#79c0ff" rx="1"/>

  <!-- Subtitle tech stack -->
  <text x="172" y="158" font-family="'Courier New', monospace" font-size="13" fill="#8b949e">Spring Boot  ·  REST APIs  ·  MySQL  ·  JWT  ·  Hibernate  ·  React.js</text>

  <!-- Divider -->
  <line x1="172" y1="178" x2="848" y2="178" stroke="#30363d" stroke-width="0.5"/>

  <!-- Badge: Open to work -->
  <rect x="172" y="194" width="130" height="28" fill="#1a3a2a" stroke="#57ab5a" stroke-width="0.8" rx="5"/>
  <circle cx="190" cy="208" r="5" fill="#57ab5a"/>
  <text x="202" y="213" font-family="'Courier New', monospace" font-size="12" fill="#57ab5a">Open to work</text>

  <!-- Badge: Hubli India -->
  <rect x="314" y="194" width="116" height="28" fill="#1a2a3a" stroke="#378ADD" stroke-width="0.8" rx="5"/>
  <circle cx="330" cy="206" r="4" fill="none" stroke="#79c0ff" stroke-width="1.2"/>
  <line x1="330" y1="210" x2="330" y2="215" stroke="#79c0ff" stroke-width="1.2"/>
  <text x="342" y="213" font-family="'Courier New', monospace" font-size="12" fill="#79c0ff">Hubli, India</text>

  <!-- Badge: BE Comp Sci -->
  <rect x="442" y="194" width="132" height="28" fill="#2a1a3a" stroke="#a371f7" stroke-width="0.8" rx="5"/>
  <text x="458" y="213" font-family="'Courier New', monospace" font-size="12" fill="#a371f7">◈ B.E. Comp Sci</text>

  <!-- Badge: NASSCOM Certified -->
  <rect x="586" y="194" width="170" height="28" fill="#3a2a1a" stroke="#e3b341" stroke-width="0.8" rx="5"/>
  <text x="602" y="213" font-family="'Courier New', monospace" font-size="12" fill="#e3b341">★ NASSCOM Certified</text>

  <!-- Code snippet decoration -->
  <text x="660" y="72" font-family="'Courier New', monospace" font-size="11" fill="#30363d">@RestController</text>
  <text x="660" y="88" font-family="'Courier New', monospace" font-size="11" fill="#30363d">class RohitAPI {</text>
  <text x="672" y="104" font-family="'Courier New', monospace" font-size="11" fill="#30363d">role = "Backend Dev";</text>
  <text x="672" y="120" font-family="'Courier New', monospace" font-size="11" fill="#30363d">stack = "SpringBoot";</text>
  <text x="672" y="136" font-family="'Courier New', monospace" font-size="11" fill="#30363d">status = "Hiring";</text>
  <text x="660" y="152" font-family="'Courier New', monospace" font-size="11" fill="#30363d">}</text>

  <!-- Top right bracket decoration -->
  <rect x="840" y="16" width="44" height="44" fill="none" stroke="#21262d" stroke-width="0.5" rx="6"/>
  <text x="862" y="44" text-anchor="middle" font-family="monospace" font-size="22" fill="#378ADD">{ }</text>
</svg>
